# xmcd
# 
# Track frame offsets:
#     150
#     13197
#     29902
#     40243
#     52644
#     63666
#     75321
#     87316
#     98481
#     110295
#     125193
#     135684
#     147776
#     158584
#     170025
#     189515
#     201084
#     213395
#     227453
#     240367
#     251514
#     266688
#     278994
# 
# Disc length: 3900
# 
# Revision: 1
# Processed by: cddbd v1.5.2PL0 Copyright (c) Steve Scherf et al.
# Submitted via: fre:ac v1.0.31
# 
DISCID=3d0f3a17
DTITLE=Various Artist - Easy Listening Country Favourites 1-5
DYEAR=0
DGENRE=Country
TTITLE0=Lynn Anderson - Rose Garden
TTITLE1=Johnny Cash - A Boy Named Sue
TTITLE2=Faron Young - Hello Walls
TTITLE3=Charlie Rich - The Most Beautiful Girl
TTITLE4=Roger Miller - King Of The Road
TTITLE5=Patsy Cline - Walkin'After Midnight
TTITLE6=Willie Nelson - Funny How Time Slips Away
TTITLE7=Don Gibson - Oh Lonesome Me
TTITLE8=Dolly Parton - Jolene
TTITLE9=Kenny Rogers - Crazy
TTITLE10=Jim Reeves - He'll Have To Go
TTITLE11=Tammy Wynette - Stand By Your Man
TTITLE12=Jim Reeves - Welcome To My World
TTITLE13=Patsy Cline - Crazy Dreams
TTITLE14=Kenny Rogers - She Believes In Me
TTITLE15=Dolly Parton - 9 To 5
TTITLE16=Johnny Cash - I Walk The Line
TTITLE17=Lynn Anderson - Cry
TTITLE18=Merle Haggard - The Figtin' Side Of Me
TTITLE19=Conway Twitty - It's Only Make Believe
TTITLE20=Billie Jo Spears - Blanket On The Ground
TTITLE21=Johnny Paycheck - Take This Job And Shove It
TTITLE22=Loretta Lynn - Coalminer's Daughter
EXTD=
EXTT0=
EXTT1=
EXTT2=
EXTT3=
EXTT4=
EXTT5=
EXTT6=
EXTT7=
EXTT8=
EXTT9=
EXTT10=
EXTT11=
EXTT12=
EXTT13=
EXTT14=
EXTT15=
EXTT16=
EXTT17=
EXTT18=
EXTT19=
EXTT20=
EXTT21=
EXTT22=
PLAYORDER=
